<svg version="1.2" xmlns="http://www.w3.org/2000/svg" viewBox="0 0 855 855" width="855" height="855">
	<style>
		.s0 { fill: #000000 } 
	</style>
	<path id="Path 0" fill-rule="evenodd" class="s0" d="m426.5 33.12c10.45-0.06 25.98 0.54 34.5 1.33 8.52 0.79 20.23 2.15 26 3.01 5.77 0.86 14.1 2.27 18.5 3.14 4.4 0.87 14.08 3.13 21.5 5.03 7.42 1.9 18.67 5.19 25 7.3 6.33 2.11 17.13 6.08 24 8.83 6.88 2.74 19.02 8.25 27 12.24 7.98 3.98 21.02 11.32 29 16.3 7.98 4.98 15.96 10.22 17.75 11.63 1.79 1.41 3.25 3.13 3.25 3.82 0 0.69-3.82 6.54-8.48 13-4.66 6.46-9.77 13.32-14.22 18.75l-5.4-3.63c-2.97-2-9.9-6.45-15.4-9.89-5.5-3.44-15.4-8.91-22-12.17-6.6-3.25-13.58-6.74-15.5-7.75-1.92-1.01-10.48-4.42-19-7.57-8.52-3.15-19.1-6.82-23.5-8.16-4.4-1.33-12.5-3.54-18-4.89-5.5-1.35-15.18-3.34-21.5-4.42-6.32-1.07-18.14-2.64-26.25-3.49-8.51-0.88-24.17-1.53-37-1.54-12.24 0-26.75 0.48-32.25 1.08-5.5 0.6-14.5 1.76-20 2.57-5.5 0.82-17.2 3.07-26 5-8.8 1.94-22.75 5.8-31 8.59-8.25 2.78-20.63 7.5-27.5 10.48-6.87 2.99-17.45 8-23.5 11.14-6.05 3.15-16.99 9.53-24.31 14.18-7.31 4.66-16.76 11.06-21 14.22-4.23 3.16-13.31 10.57-20.19 16.46-6.87 5.89-18.45 17.03-25.71 24.75-7.27 7.72-16.44 18.09-20.4 23.04-3.95 4.95-9.02 11.7-11.27 15-2.25 3.3-6.91 10.39-10.36 15.75-3.44 5.36-6.26 9.97-6.26 10.25 0 0.28-1.66 3.09-3.68 6.25-2.03 3.16-7.25 13.18-11.59 22.25-4.96 10.35-10.45 24.13-14.75 37-3.77 11.27-7.98 25.23-9.35 31-1.36 5.77-3.4 15.9-4.52 22.5-1.13 6.6-2.51 16.05-3.07 21-0.57 4.95-1.04 11.14-1.04 18.5h68v-3.5c0-1.93 0.66-7.89 1.47-13.25 0.8-5.36 2.41-14.48 3.56-20.25 1.15-5.77 3.46-15.23 5.13-21 1.68-5.77 4.64-14.77 6.59-20 1.95-5.23 6.32-15.57 9.72-23 3.4-7.43 9.31-18.68 13.13-25 3.83-6.32 11.2-17.13 16.38-24 5.85-7.76 15.89-18.96 26.47-29.55 10.49-10.48 21.09-19.99 27.55-24.7 5.77-4.21 11.63-8.51 13-9.55 1.37-1.04 7-4.6 12.5-7.91 5.5-3.31 14.27-8.17 19.5-10.79 5.23-2.61 14.23-6.69 20-9.05 5.77-2.36 15.68-5.86 22-7.78 6.32-1.92 18.25-4.87 26.5-6.56 8.25-1.69 21.07-3.76 28.5-4.58 7.43-0.83 20.48-1.51 29-1.51 8.52 0 21.57 0.67 29 1.5 7.43 0.82 16.2 1.97 19.5 2.55 3.3 0.58 12.3 2.62 20 4.54 7.7 1.92 19.4 5.29 26 7.49 6.6 2.21 18.08 6.94 25.5 10.52 7.42 3.58 18.67 9.58 25 13.34 6.33 3.76 12.74 7.78 14.25 8.93 1.51 1.16 2.76 2.67 2.76 3.36 0.01 0.69-3.81 6.76-8.5 13.5-4.68 6.74-8.96 12.47-9.51 12.75-0.55 0.28-3.14-1.03-5.75-2.9-2.61-1.87-8.8-5.74-13.75-8.61-4.95-2.86-11.92-6.68-15.5-8.49-3.58-1.8-10.55-4.92-15.5-6.91-4.95-2-14.18-5.17-20.5-7.04-6.32-1.87-14.65-4.13-18.5-5.03-3.85-0.89-11.73-2.29-17.5-3.11-5.77-0.82-19.5-1.75-30.5-2.07-15.19-0.44-23.36-0.19-34 1.05-7.7 0.9-19.4 2.75-26 4.12-6.6 1.36-16.95 4.12-23 6.12-6.05 2.01-15.27 5.39-20.5 7.53-5.23 2.13-14.9 6.83-21.5 10.45-6.6 3.61-16.91 10.02-22.91 14.23-6 4.21-15.68 11.74-21.5 16.73-5.82 4.99-13.92 12.64-17.99 17-4.07 4.36-9.72 10.86-12.57 14.43-2.84 3.57-7.44 9.88-10.22 14-2.77 4.13-8.39 13.35-12.48 20.5-4.09 7.15-9.07 16.82-11.06 21.5-1.99 4.68-5.25 13.23-7.25 19-1.99 5.77-4.93 15.68-6.53 22-1.59 6.32-3.7 17.13-4.68 24-1.32 9.2-1.78 18.71-1.77 36 0.01 19.33 0.41 26.07 2.26 38 1.23 7.98 3.16 17.88 4.28 22 1.13 4.13 3.9 13.13 6.16 20 2.36 7.17 7.77 19.76 12.69 29.52 4.71 9.37 12.01 22.19 16.2 28.5 4.2 6.32 11.15 15.53 15.45 20.48 4.29 4.95 10.87 12.04 21.42 22.5l-11.25 11.52c-6.19 6.33-11.7 11.52-12.25 11.52-0.55 0-5.76-4.85-11.58-10.77-5.82-5.92-13.94-15.27-18.06-20.77-4.11-5.5-9.75-13.37-12.53-17.5-2.78-4.12-6.64-10.2-8.58-13.5-1.94-3.3-5.83-10.61-8.64-16.25-2.81-5.64-6.95-14.86-9.2-20.5-2.25-5.64-5.14-13.4-6.42-17.25-1.28-3.85-3.07-9.7-3.97-13-0.91-3.3-2.69-10.5-3.96-16-1.27-5.5-2.82-13.6-3.45-18-0.62-4.4-1.46-10.93-2.61-21l-68-0.23 0.72 11.12c0.4 6.11 1.66 16.74 2.8 23.61 1.14 6.88 3.22 17.68 4.63 24 1.41 6.32 4.58 18.02 7.04 26 2.46 7.98 6.96 20.35 9.99 27.5 3.04 7.15 8.99 19.75 13.23 28 4.24 8.25 10.38 19.44 13.65 24.87 3.27 5.42 10.38 15.77 15.8 23 5.42 7.22 12.62 16.26 16 20.09 3.38 3.83 8.61 9.65 11.64 12.94 3.03 3.3 9.1 9.44 13.5 13.65 4.4 4.22 12.05 11.01 17 15.1 4.95 4.09 12.37 9.94 16.5 13 4.12 3.06 12 8.47 17.5 12.02 5.5 3.56 12.25 7.82 15 9.47 2.75 1.65 11.75 6.41 20 10.57 8.25 4.17 19.95 9.6 26 12.08 6.05 2.48 16.18 6.11 22.5 8.08 6.32 1.96 16.68 4.89 23 6.51 6.32 1.61 17.12 3.89 24 5.05 6.87 1.15 18.12 2.76 25 3.58 7.15 0.84 21.28 1.47 33 1.48 11.27 0 25.68-0.46 32-1.04 6.32-0.57 17.12-1.94 24-3.04 6.87-1.09 18.12-3.34 25-4.97 6.87-1.64 18.35-4.84 25.5-7.11 7.15-2.27 19.86-6.99 28.25-10.48 8.39-3.49 21.66-9.8 29.5-14.02 7.84-4.21 20.77-11.92 28.75-17.12 7.98-5.2 19.9-13.78 26.5-19.06 6.6-5.28 18.78-16.37 27.07-24.63 8.29-8.26 18.22-18.85 22.05-23.52 3.84-4.67 9.71-12.1 13.04-16.5 3.33-4.4 8.67-12.05 11.86-17 3.2-4.95 8.21-13.16 11.15-18.25 2.93-5.09 7.76-14.09 10.74-20 2.97-5.91 6.61-13.45 8.09-16.75 1.48-3.3 5.07-12.75 7.99-21 2.92-8.25 7.37-23.33 9.89-33.5 2.51-10.18 5.51-24.57 6.64-32 1.14-7.43 2.39-17.67 3.48-32.01l-69.5 0.01-0.59 6.75c-0.32 3.71-1.24 11.25-2.04 16.75-0.8 5.5-2.15 13.15-3.01 17-0.86 3.85-3.13 12.4-5.04 19-1.92 6.6-5.05 16.27-6.97 21.5-1.92 5.23-6.98 16.48-11.24 25-4.25 8.52-12.07 22.02-17.36 30-5.29 7.98-12.53 18.1-16.08 22.5-3.55 4.4-10.74 12.5-25.52 28l-23.15-23.5 8.25-8.97c4.54-4.94 11.33-12.7 15.1-17.25 3.77-4.56 9.42-12.11 12.56-16.78 3.14-4.67 7.77-12.1 10.28-16.5 2.52-4.4 6.72-12.5 9.34-18 2.62-5.5 7.44-18.1 10.7-28 4.07-12.31 6.68-22.42 8.26-32 1.28-7.7 2.88-20.3 3.55-28 0.68-7.79 0.95-19.1 0.62-25.5-0.33-6.32-1.3-16.9-2.16-23.5-0.86-6.6-2.68-16.73-4.06-22.5-1.38-5.77-4.11-15.68-6.08-22-1.97-6.32-5.98-17.13-8.92-24-2.94-6.88-7.88-17-10.98-22.5-3.1-5.5-6.05-10.56-6.55-11.25-0.5-0.69-0.6-1.81-0.22-2.5 0.38-0.69 4.71-6.88 9.62-13.75 4.91-6.88 9.42-12.5 10.02-12.5 0.59 0 3.69 3.82 6.87 8.5 3.19 4.68 9.17 15.14 13.3 23.25 4.12 8.11 8.9 18.24 10.61 22.5 1.72 4.26 4.9 12.93 7.08 19.25 2.18 6.32 5.02 15.77 6.32 21 1.3 5.23 3.26 15.13 4.36 22 1.1 6.88 2.25 15.54 3.13 26h69l-0.01-2.75c0-1.51-0.68-8.82-1.5-16.25-0.82-7.43-2.2-17.32-3.06-22-0.86-4.68-2.9-13.9-4.55-20.5-1.65-6.6-4.61-17.18-6.58-23.5-1.98-6.32-6.06-17.8-9.07-25.5-3.01-7.7-7.27-17.6-9.46-22-2.2-4.4-6.5-12.5-9.57-18-3.07-5.5-9.37-15.85-14.01-23-4.64-7.15-11.63-17.05-15.54-22-3.91-4.95-10.65-13.05-14.98-18-4.33-4.95-8.27-9.11-8.77-9.25-0.49-0.14-2.42 1.89-4.28 4.5-1.87 2.61-6.28 9.03-9.8 14.25-3.53 5.22-10 14.51-14.37 20.64-4.37 6.13-12.68 17.82-18.45 25.98-5.77 8.16-13.34 18.9-16.82 23.86-3.47 4.96-7.97 11.4-13.68 19.58l2.47 3.22c1.36 1.77 4.8 6.6 7.64 10.72 2.83 4.13 8.31 13.8 12.15 21.5 3.85 7.7 8.87 19.4 11.17 26 2.3 6.6 5.02 15.38 6.06 19.5 1.03 4.13 2.8 13.8 3.93 21.5 1.49 10.1 2.06 19.08 2.07 32.25 0.01 10.04-0.47 21.51-1.05 25.5-0.59 3.99-1.98 12.2-3.1 18.25-1.12 6.05-4.06 17.07-6.55 24.5-2.48 7.43-6.26 17.21-8.4 21.75-2.14 4.54-3.89 8.48-3.89 8.75 0 0.27-2.16 4.21-4.8 8.75-2.64 4.54-6.78 11.17-9.19 14.75-2.41 3.58-6.85 9.65-9.87 13.5-3.03 3.85-9.81 11.45-15.07 16.88-5.26 5.43-13.62 13.28-18.57 17.44-4.95 4.15-13.95 10.76-20 14.69-6.05 3.92-13.92 8.74-17.5 10.71-3.58 1.97-11.23 5.59-17 8.05-5.77 2.45-15.68 6.05-22 7.99-6.32 1.94-16.68 4.46-23 5.6-6.32 1.13-17.13 2.58-24 3.2-7.22 0.66-17.78 0.86-25 0.47-6.88-0.36-17.23-1.31-23-2.11-5.77-0.8-14.77-2.54-20-3.87-5.23-1.34-13.77-3.83-19-5.55-5.23-1.72-15.13-5.71-22-8.86-6.88-3.15-17.14-8.64-22.82-12.19-5.67-3.55-14.22-9.35-19-12.89-4.77-3.55-14.54-12.32-21.7-19.5-7.17-7.18-15.94-16.79-19.5-21.36-3.57-4.56-9.57-13.33-13.34-19.5-3.77-6.16-9.02-15.7-11.66-21.2-2.64-5.5-6.39-14.27-8.34-19.5-1.94-5.23-4.66-14-6.03-19.5-1.38-5.5-3.42-16.3-4.55-24-1.46-9.97-2.05-19.04-2.04-31.5 0.01-11.77 0.64-21.92 1.92-31 1.04-7.43 2.64-16.43 3.55-20 0.9-3.57 2.69-9.88 3.98-14 1.28-4.13 4.01-11.77 6.07-17 2.05-5.23 6.28-14.45 9.4-20.5 3.11-6.05 8.1-14.6 11.07-19 2.98-4.4 8.87-12.27 13.09-17.5 4.22-5.23 12.56-14.24 18.54-20.04 5.97-5.79 14.01-13.04 17.86-16.1 3.85-3.06 10.15-7.69 14-10.28 3.85-2.6 13.07-7.78 20.5-11.52 7.43-3.73 17.77-8.41 23-10.4 5.23-1.98 15.35-5.16 22.5-7.07 7.15-1.9 18.4-4.2 25-5.09 7.29-1 19.26-1.66 30.5-1.69 12.23-0.04 22.39 0.5 30 1.6 6.32 0.92 12.62 1.91 14 2.22 1.37 0.3 8.35 2.16 15.5 4.13 7.15 1.97 19.3 6.2 27 9.4 7.7 3.2 18.66 8.64 24.36 12.08 5.7 3.44 11.93 7.61 17.3 12.26l-5.34 7.5c-2.94 4.12-7.59 10.8-10.34 14.84-2.74 4.04-5.54 7.75-6.23 8.25-0.84 0.61-3.72-0.57-8.75-3.59-4.13-2.48-7.73-4.5-8-4.5-0.27 0-2.86-1.4-5.75-3.11-2.89-1.71-9.3-4.84-14.25-6.96-4.95-2.11-14.63-5.38-21.5-7.27-6.88-1.89-18.35-4.22-25.5-5.18-9.87-1.33-16.85-1.62-29-1.21-8.8 0.3-18.02 1-20.5 1.55-2.48 0.56-7.2 1.54-10.5 2.19-3.3 0.64-9.6 2.24-14 3.55-4.4 1.32-12.5 4.22-18 6.45-5.5 2.24-14.72 6.86-20.5 10.28-5.77 3.41-14.09 8.86-18.5 12.09-4.4 3.23-13.2 11.11-19.56 17.5-6.35 6.39-14.25 15.44-17.55 20.12-3.3 4.68-8.54 13-11.64 18.5-3.1 5.5-7.91 15.74-10.69 22.75-2.78 7.01-6.16 17.14-7.51 22.5-1.35 5.36-2.81 12.78-4.05 23.23l68-0.11 25-37.49c13.75-20.62 25.4-37.35 25.88-37.18 0.48 0.16 2.88 3.9 5.32 8.3 2.44 4.4 7.39 13.62 11.01 20.5 3.61 6.87 6.9 12.95 7.3 13.5 0.41 0.55 7.83 14.5 16.49 31 8.66 16.5 18.45 34.95 21.76 41 3.31 6.05 6.63 12.01 8.74 15.5l1.83-2.25c1-1.24 5.52-7.65 10.03-14.25 4.51-6.6 13.33-19.43 19.59-28.5 6.27-9.07 16.18-23.48 22.03-32 5.84-8.52 14.77-21.43 19.82-28.68 5.06-7.25 15.4-22.1 22.98-33 7.58-10.9 16.75-24.09 20.39-29.32 3.64-5.23 14.35-20.52 23.8-34 9.45-13.47 19.67-28.1 22.71-32.5 3.03-4.4 11.24-16.1 18.24-26 6.99-9.9 21.22-30.15 31.61-45 10.4-14.85 20.15-28.49 24.47-33.62l6.5 5.38c3.58 2.96 13.03 11.88 21.02 19.81 7.99 7.94 17.89 18.44 22 23.34 4.11 4.9 11.4 14.12 16.19 20.5 4.78 6.37 12.5 17.66 17.13 25.09 4.64 7.43 12.28 20.93 16.99 30 4.7 9.07 10.19 20.32 12.19 25 2 4.68 5.86 14.46 8.56 21.75 2.71 7.29 6.49 19.21 8.4 26.5 1.92 7.29 4.63 18.43 6.04 24.75 1.4 6.32 3.4 17.35 4.44 24.5 1.04 7.15 2.42 18.18 3.07 24.5 0.75 7.41 0.99 22 0.67 41-0.38 22.5-0.99 32.94-2.59 44-1.15 7.98-2.97 18.77-4.06 24-1.08 5.23-2.64 12.42-3.47 16-0.83 3.58-2.9 11.23-4.61 17-1.7 5.77-3.7 12.3-4.43 14.5-0.74 2.2-4.35 11.65-8.02 21-3.68 9.35-10.42 24.2-14.98 33-4.56 8.8-11.76 21.62-16.01 28.5-4.24 6.87-10.26 16.05-13.37 20.38-3.11 4.34-10.2 13.56-15.75 20.5-5.55 6.94-17.48 20.06-26.5 29.16-9.03 9.1-20.97 20.35-26.55 25-5.58 4.65-16.15 12.76-23.5 18.02-7.35 5.25-19.44 13.19-26.86 17.64-7.42 4.44-19.8 11.22-27.5 15.07-7.7 3.84-18.27 8.79-23.5 10.99-5.23 2.21-14.67 5.83-21 8.06-6.33 2.22-15.33 5.19-20 6.6-4.67 1.4-13.45 3.68-19.5 5.06-6.05 1.38-13.02 2.97-15.5 3.53-2.48 0.56-11.25 1.9-19.5 2.96-8.25 1.07-22.88 2.44-32.5 3.04-12.37 0.77-23.36 0.78-37.5 0.05-11-0.57-23.82-1.51-28.5-2.09-4.68-0.58-13.9-1.97-20.5-3.09-6.6-1.12-18.98-3.79-27.5-5.94-8.52-2.16-20.23-5.45-26-7.33-5.77-1.87-15-5.2-20.5-7.39-5.5-2.18-12.48-5.04-15.5-6.34-3.02-1.3-10.68-4.94-17-8.08-6.32-3.13-14.88-7.57-19-9.86-4.13-2.28-14.69-8.94-23.48-14.8-8.78-5.85-21.38-14.96-28-20.24-6.61-5.27-15.4-12.63-19.52-16.35-4.13-3.71-11.93-11.32-17.34-16.9-5.41-5.58-14-15.1-19.1-21.15-5.1-6.05-12.42-15.27-16.28-20.5-3.86-5.23-9.77-13.77-13.13-19-3.35-5.23-9.2-14.9-12.98-21.5-3.78-6.6-8.45-15.15-10.38-19-1.92-3.85-5.77-12.4-8.55-19-2.78-6.6-7.12-17.74-9.65-24.75-2.52-7.01-6.17-18.49-8.1-25.5-1.93-7.01-4.82-19.5-6.44-27.75-1.61-8.25-3.74-20.85-4.74-28-1.46-10.51-1.8-19.52-1.78-47 0.02-29.58 0.32-36.15 2.27-50.5 1.24-9.07 3.41-22.13 4.82-29 1.41-6.88 3.68-16.77 5.04-22 1.35-5.23 4.64-16.02 7.31-24 2.66-7.98 6.49-18.55 8.52-23.5 2.02-4.95 7.43-16.65 12.01-26 4.59-9.35 11.21-21.73 14.74-27.5 3.52-5.78 9.24-14.55 12.71-19.5 3.47-4.95 10.71-14.63 16.08-21.5 5.38-6.88 12.87-15.88 16.65-20 3.77-4.13 12.03-12.51 18.34-18.63 6.32-6.13 13.73-13.07 16.48-15.43 2.75-2.35 9.05-7.5 14-11.43 4.95-3.92 13.28-10.19 18.5-13.92 5.22-3.73 15.35-10.29 22.5-14.58 7.15-4.28 18.4-10.49 25-13.79 6.6-3.29 17.63-8.36 24.5-11.25 6.88-2.9 19.93-7.71 29-10.7 9.07-2.99 24.38-7.18 34-9.31 9.63-2.14 22-4.59 27.5-5.46 5.5-0.86 16.75-2.18 25-2.92 8.25-0.74 23.55-1.4 34-1.46zm131.71 323.38c-4.45 6.6-12.95 19.07-18.89 27.7-5.95 8.64-17.2 24.84-25.01 36-7.8 11.17-22.5 32.45-32.65 47.3-10.16 14.85-19.88 29.02-21.6 31.5-1.72 2.48-8.06 11.81-14.09 20.75-6.03 8.94-11.53 16.26-12.22 16.27-0.69 0.01-2.82-3.02-4.75-6.75-1.93-3.72-5.12-9.69-7.09-13.27-1.97-3.57-6.89-12.8-10.92-20.5-4.03-7.7-11.01-20.98-15.52-29.5-4.51-8.52-11.47-21.57-15.47-29-4-7.42-9.42-17.55-12.04-22.5l-4.76-9c-4.15 6.2-9.93 14.98-15.53 23.5l-10.17 15.5-89.5 0.5c0.96 6.59 1.87 11.65 2.65 15.5 0.78 3.85 2.72 11.5 4.32 17 1.59 5.5 5.06 14.74 7.71 20.52 2.65 5.79 7.07 14.51 9.82 19.39 2.75 4.87 8.79 13.64 13.42 19.48 4.64 5.83 11.16 13.26 14.5 16.5 3.35 3.23 9.23 8.46 13.08 11.6 3.85 3.15 11.27 8.53 16.5 11.97 5.23 3.43 14 8.4 19.5 11.03 5.5 2.63 13.82 6.15 18.5 7.81 4.68 1.66 10.98 3.71 14 4.55 3.02 0.84 9.55 2.27 14.5 3.17 4.95 0.9 16.65 1.89 26 2.19 10.52 0.34 20.43 0.1 26-0.62 4.95-0.65 12.37-1.86 16.5-2.7 4.12-0.83 13.12-3.36 20-5.6 6.87-2.25 17.45-6.58 23.5-9.63 6.05-3.04 15.27-8.42 20.5-11.95 5.23-3.53 13.28-9.63 17.89-13.56 4.61-3.93 11.38-10.52 15.04-14.65 3.67-4.12 8.03-9.3 9.71-11.5 1.69-2.2 4.78-6.48 6.88-9.5 2.1-3.02 6.19-10 9.08-15.5 2.89-5.5 6.83-13.82 8.77-18.5 1.93-4.67 5.1-14.8 7.05-22.5 1.95-7.7 4.06-18.5 4.69-24 0.67-5.86 0.92-16.41 0.6-25.5-0.31-8.75-1.42-20.29-2.56-26.5-1.1-6.05-3.19-15.05-4.63-20-1.45-4.95-4.91-14.17-7.7-20.5-2.78-6.32-6.79-14.42-8.91-18-2.11-3.57-4.23-7.05-4.7-7.73-0.59-0.85-2.88 1.62-7.39 8-3.6 5.08-10.17 14.63-14.61 21.23zm-130.71-86.4c1.65-0.05 4.57 0.34 6.5 0.87 1.93 0.53 4.85 2.35 9.5 7.16l0.25 27.43c0.21 22.58-0.02 28.06-1.25 30.94-0.82 1.93-2.96 4.4-4.75 5.5-1.98 1.22-5 1.99-7.75 1.99-2.48 0-6.07-0.42-8-0.93-1.93-0.51-4.96-2.53-10-8.06l0.5-56.87 2.57-3.09c1.41-1.7 4.11-3.49 6-3.98 1.89-0.48 4.78-0.92 6.43-0.96z"/>
</svg>